<?xml version="1.0" encoding="utf-8"?>
<!-- Generator: Adobe Illustrator 25.4.1, SVG Export Plug-In . SVG Version: 6.00 Build 0)  -->
<svg version="1.1" id="Layer_1" xmlns="http://www.w3.org/2000/svg" xmlns:xlink="http://www.w3.org/1999/xlink" x="0px" y="0px"
	 viewBox="0 0 765.35 141.73" style="enable-background:new 0 0 765.35 141.73;" xml:space="preserve">
<style type="text/css">
	.st0{fill:#0469AE;}
	.st1{fill:#1DA6E0;}
</style>
<g>
	<g>
		<g>
			<path class="st0" d="M443.96,39.66c4.43-0.05,8.87-0.03,13.31-0.01c6.35-0.07,12.62,2.31,17.57,6.23
				c5.64,4.44,9.43,11.05,10.64,18.1c0.84,5.91,0.1,12.1-2.62,17.46c-3.74,7.7-11.05,13.63-19.43,15.49
				c-4.03,1.13-8.25,0.73-12.39,0.81c-4.19-0.09-8.46,0.33-12.56-0.75c-6.24-1.34-11.94-4.93-15.99-9.85
				c-5.3-6.37-7.69-15.1-6.22-23.26C418.18,50.61,430.48,39.66,443.96,39.66z M441.27,53.76c-3.91,1.02-7.45,3.53-9.5,7.05
				c-2.42,3.89-2.74,8.88-1.26,13.18c1.64,4.24,5.18,7.78,9.55,9.14c3.36,1.25,6.99,0.68,10.49,0.81c3.8-0.15,7.76,0.51,11.39-0.93
				c5.17-1.73,9.07-6.52,9.95-11.86c0.18-2.59,0.31-5.32-0.78-7.75c-1.71-4.82-6.05-8.57-11.03-9.68c-2.36-0.39-4.76-0.09-7.13-0.36
				c-1.92-0.19-3.84,0.37-5.76,0.01C445.24,53.61,443.22,53.34,441.27,53.76z"/>
		</g>
		<path class="st0" d="M196.19,39.82c4.6-0.01,9.2,0,13.8,0c0.02,19.31,0,38.62,0,57.92c-4.6,0-9.21,0.01-13.81-0.01
			C196.2,78.42,196.18,59.12,196.19,39.82z"/>
		<path class="st0" d="M218.14,39.81c3.73,0.01,7.46-0.02,11.19,0.02c10.23,10.55,20.5,21.06,30.79,31.55
			c1.08,1.06,2.01,2.29,3.3,3.12c0.05-11.56-0.01-23.13,0.03-34.69c4.63,0.01,9.26,0,13.89,0c0.01,19.31,0,38.62,0,57.92
			c-3.67,0.01-7.34,0-11.01,0c-11.41-11.62-22.79-23.25-34.22-34.84c-0.02,11.62,0,23.23,0,34.85c-4.66,0-9.32,0.01-13.99-0.01
			C218.14,78.42,218.13,59.12,218.14,39.81z"/>
		<path class="st0" d="M285.49,97.74c0-19.31-0.01-38.62,0.01-57.93c19.05,0.01,38.09,0,57.14,0c0.01,4.66,0,9.32,0,13.98
			c-14.36,0-28.72,0-43.08,0c-0.03,2.66-0.01,5.31-0.02,7.97c12.95,0.01,25.91,0,38.86,0c-0.01,4.65,0.02,9.31,0,13.97
			c-12.95,0-25.9,0-38.84,0c-0.03,2.67-0.01,5.35-0.01,8.02c14.36,0,28.73,0,43.09,0c0,4.65,0,9.31,0,13.97
			C323.59,97.74,304.54,97.74,285.49,97.74z"/>
		<g>
			<path class="st0" d="M350.99,97.74c0-19.31-0.02-38.62,0.01-57.93c13.19,0.01,26.39,0,39.58,0c5.13-0.1,10.24,1.87,14.08,5.26
				c4.34,3.88,6.87,9.71,6.56,15.55c-0.22,2.79-0.71,5.56-2.04,8.07c-1.86,3.72-5.03,6.65-8.62,8.69c0.43,1.22,1.57,1.95,2.4,2.88
				c5.63,5.85,11.33,11.62,16.98,17.44c-6.55,0.1-13.1,0.01-19.66,0.04c-5.52-5.78-10.99-11.62-16.56-17.35
				c-6.22-0.22-12.47-0.07-18.7-0.07c0.04,5.81,0,11.61,0.02,17.42C360.36,97.74,355.67,97.74,350.99,97.74z M365.07,53.73
				c-0.04,4.15,0,8.29-0.02,12.44c8.66,0.01,17.33,0.03,25.99-0.01c2.63,0.02,5.09-1.7,5.97-4.19c1.06-2.62-0.37-5.72-2.68-7.16
				c-1.37-0.93-3.09-0.99-4.69-1.03C381.45,53.78,373.26,53.75,365.07,53.73z"/>
		</g>
	</g>
	<g>
		<g>
			<path class="st1" d="M519.43,39.82c13.27-0.01,26.53,0,39.8,0c5.45-0.09,10.88,2.19,14.65,6.13c3.24,3.25,5.22,7.65,5.75,12.19
				c0.68,6.09-1.8,12.37-6.26,16.55c-3.64,3.49-8.6,5.5-13.63,5.6c-8.82,0.04-17.63-0.03-26.45,0.04c0.01,5.8,0,11.61,0,17.42
				c-4.62-0.01-9.24,0.02-13.86-0.02C519.44,78.42,519.42,59.12,519.43,39.82z M533.24,54.07c0.1,4.02,0.03,8.05,0.04,12.08
				c8.35,0.08,16.7,0,25.04,0.04c1.8,0.05,3.76-0.2,5.15-1.45c1.81-1.41,2.64-3.94,1.98-6.14c-0.6-3-3.72-4.91-6.66-4.79
				c-7.81-0.02-15.62,0.01-23.44-0.01C534.62,53.74,533.92,53.87,533.24,54.07z"/>
		</g>
		<g>
			<path class="st1" d="M570.3,97.74c10.99-19.34,22.06-38.63,33.12-57.93c3.42,0,6.84,0,10.26,0c9.97,17.38,19.93,34.76,29.9,52.15
				c1.13,1.89,2.11,3.87,3.37,5.69c-5.4,0.23-10.81,0.01-16.21,0.11c-1.56-2.89-3.34-5.66-4.83-8.6
				c-11.52-0.04-23.04,0.03-34.55-0.03c-1.77,2.8-3.26,5.77-4.97,8.62C581.03,97.75,575.66,97.74,570.3,97.74z M608.42,59.04
				c-2.88,5.45-6.1,10.71-9.05,16.11c6.18,0.01,12.37,0.02,18.55-0.01c-2.54-4.28-4.97-8.64-7.47-12.94
				C609.82,61.12,609.3,59.96,608.42,59.04z"/>
		</g>
		<path class="st1" d="M629.78,39.85c6.42-0.08,12.85,0,19.27-0.04c0.87-0.21,1.3,0.7,1.88,1.15c6.67,6.49,13.42,12.88,20.06,19.4
			c7.04-6.84,14.12-13.65,21.14-20.52c6.69-0.04,13.38-0.02,20.07,0c-11.41,11.09-22.76,22.25-34.2,33.31c-0.02,8.2,0,16.4,0,24.6
			c-4.66,0-9.32,0-13.97,0c0-8.21,0.01-16.42-0.01-24.62C652.55,62.06,641.23,50.88,629.78,39.85z"/>
	</g>
	<path class="st1" d="M166.75,37.53c-8.52-11.39-21.53-19.25-35.59-21.43c-7.08-0.72-14.2-0.72-21.3-0.6
		c-1.64-0.06-2.71,1.35-3.81,2.33c-5.78,5.85-11.62,11.65-17.44,17.46c-2.43,2.42-4.72,5.04-7.55,7.02c1.02,0.38,2.05,0.8,3.18,0.69
		c8.59,0.01,17.19-0.03,25.78-0.01c6.84,0.08,13.77-0.47,20.5,1.07l0.63,0.22c10.43,3.37,18.11,13.33,19.05,24.21
		c1.34,12.62-7.31,24.97-19.17,29c-7.51,1.95-15.31,0.95-22.96,1.19c-4.48-0.01-8.97,0.07-13.45-0.11
		c-0.27-6.92,0.09-13.85-0.11-20.78c0.02-2.31-0.26-4.69,0.36-6.95c4.42-0.36,8.87-0.03,13.3-0.2
		c-8.63-8.98-27.53-26.99-27.96-27.13c-8.81,9.22-18.15,17.92-27.03,27.09c4.57,0.16,9.15,0.05,13.72,0.14
		c0.3,18.49,0.04,36.99,0.13,55.48c19.91-0.17,39.84,0.39,59.73-0.32c1.47,0.02,2.93-0.16,4.4-0.27c8.58-1.63,16.93-4.85,24-10.06
		c12.48-8.96,20.81-23.39,22.36-38.67C178.98,63.07,175.24,48.63,166.75,37.53z"/>
</g>
</svg>
