<?xml version="1.0" encoding="utf-8"?>
<!-- Generator: Adobe Illustrator 25.4.1, SVG Export Plug-In . SVG Version: 6.00 Build 0)  -->
<svg version="1.1" id="Layer_1" xmlns="http://www.w3.org/2000/svg" xmlns:xlink="http://www.w3.org/1999/xlink" x="0px" y="0px"
	 viewBox="0 0 28.35 28.35" style="enable-background:new 0 0 28.35 28.35;" xml:space="preserve">
<style type="text/css">
	.st0{fill:#0469AE;}
	.st1{fill:#1DA6E0;}
</style>
<g>
	<g>
		<path class="st1" d="M24.26,7.61c-1.68-2.24-4.24-3.79-7-4.22c-1.39-0.14-2.79-0.14-4.19-0.12c-0.32-0.01-0.53,0.27-0.75,0.46
			c-1.14,1.15-2.29,2.29-3.43,3.44C8.41,7.65,7.96,8.17,7.4,8.56c0.2,0.07,0.4,0.16,0.62,0.14c1.69,0,3.38-0.01,5.07,0
			c1.35,0.02,2.71-0.09,4.03,0.21l0.12,0.04c2.05,0.66,3.56,2.62,3.75,4.76c0.26,2.48-1.44,4.91-3.77,5.71
			c-1.48,0.38-3.01,0.19-4.52,0.23c-0.88,0-1.76,0.01-2.65-0.02c-0.05-1.36,0.02-2.72-0.02-4.09c0-0.46-0.05-0.92,0.07-1.37
			c0.87-0.07,1.74-0.01,2.62-0.04c-1.7-1.77-5.42-5.31-5.5-5.34c-1.73,1.81-3.57,3.53-5.32,5.33c0.9,0.03,1.8,0.01,2.7,0.03
			c0.06,3.64,0.01,7.28,0.03,10.92c3.92-0.03,7.84,0.08,11.75-0.06c0.29,0,0.58-0.03,0.86-0.05c1.69-0.32,3.33-0.95,4.72-1.98
			c2.46-1.76,4.1-4.6,4.4-7.61C26.66,12.64,25.93,9.8,24.26,7.61z"/>
	</g>
</g>
</svg>
