<svg width="78" height="80" viewBox="0 0 78 80" fill="none" xmlns="http://www.w3.org/2000/svg">
<path d="M70.2202 15.7618C64.9443 7.64436 56.9048 2.02742 48.2372 0.469167C43.8719 -0.0381697 39.4753 -0.0381701 35.0787 0.0343066C34.0738 -0.00193175 33.4143 1.01274 32.7234 1.70127C29.1433 5.86868 25.5318 9.99985 21.9517 14.1673C20.4443 15.9067 19.0311 17.7911 17.2724 19.2044C17.9005 19.4581 18.5286 19.7842 19.2195 19.7117C24.5268 19.7117 29.8342 19.6755 35.1415 19.7117C39.3811 19.7842 43.6521 19.3856 47.7975 20.4727L48.1744 20.6177C54.6123 23.0094 59.3543 30.1121 59.951 37.8671C60.7675 46.8543 55.4288 55.6602 48.1115 58.5592C43.4637 59.9363 38.6588 59.2478 33.9168 59.3927C31.1532 59.3927 28.3896 59.429 25.5946 59.3202C25.4376 54.3918 25.6574 49.4634 25.5318 44.4988C25.5318 42.8318 25.3748 41.1648 25.7516 39.5341C28.4838 39.2804 31.216 39.4979 33.9796 39.3892C28.6408 32.975 16.9584 20.1466 16.7071 20.0379C11.2742 26.597 5.49577 32.83 0 39.3529C2.8264 39.4616 5.65279 39.3892 8.47919 39.4616C8.66761 52.6524 8.51059 65.8432 8.5734 79.0339C20.8839 78.9252 33.1945 79.3238 45.4736 78.8165C46.3843 78.8165 47.295 78.7078 48.1744 78.6353C53.4817 77.4757 58.632 75.1926 62.9972 71.4601C70.7227 65.0821 75.873 54.7905 76.8152 43.8827C77.7573 33.9896 75.4648 23.698 70.2202 15.7618Z" fill="#1DA6E0"/>
</svg>
